<?xml version="1.0" standalone="no"?><!DOCTYPE svg PUBLIC "-//W3C//DTD SVG 1.1//EN" "http://www.w3.org/Graphics/SVG/1.1/DTD/svg11.dtd"><svg t="1611562227536" class="icon" viewBox="0 0 1024 1024" version="1.1" xmlns="http://www.w3.org/2000/svg" p-id="3330" width="16" height="16" xmlns:xlink="http://www.w3.org/1999/xlink"><defs><style type="text/css"></style></defs><path d="M15.515152 31.030303h992.969696v992.969697H15.515152z" fill="#8a8a8a" fill-opacity=".01" p-id="3331"></path><path d="M512 93.090909c239.926303 0 434.424242 194.497939 434.424242 434.424243s-194.497939 434.424242-434.424242 434.424242S77.575758 767.441455 77.575758 527.515152 272.073697 93.090909 512 93.090909z m-131.661576 258.885818a31.030303 31.030303 0 1 0-43.876848 43.876849L468.123152 527.515152l-131.661576 131.661575a31.030303 31.030303 0 1 0 43.876848 43.876849L512 571.392l131.661576 131.661576a31.030303 31.030303 0 1 0 43.876848-43.876849L555.876848 527.515152l131.661576-131.661576a31.030303 31.030303 0 1 0-43.876848-43.876849L512 483.638303z" fill="#8a8a8a" p-id="3332"></path></svg>